<?xml version="1.0" encoding="utf-8"?>
<!-- Generator: Adobe Adobe Illustrator 24.2.0, SVG Export Plug-In . SVG Version: 6.00 Build 0)  -->
<svg version="1.1" xmlns="http://www.w3.org/2000/svg" xmlns:xlink="http://www.w3.org/1999/xlink" x="0px" y="0px"
	 viewBox="0 0 1920 1920" style="enable-background:new 0 0 1920 1920;" xml:space="preserve">
<style type="text/css">
	.st0{fill:#F66550;}
	.st1{fill:#FFFFFF;}
	.st2{fill:#3E3E40;}
	.st3{fill:#B54A3A;}
	.st4{fill:#C4C4C4;}
	.st5{fill:#78B8D8;}
	.st6{fill:#5F93A6;}
	.st7{fill:#808080;}
	.st8{fill:#595858;}
	.st9{fill:#F46450;}
	.st10{fill:#74B7D0;}
	.st11{fill:#5E93A6;}
	.st12{fill:#FDFDFC;}
	.st13{fill:#3E3E40;stroke:#3E3E40;stroke-miterlimit:10;}
	.st14{fill:none;stroke:#3E3E40;stroke-width:22.6193;stroke-linecap:round;stroke-linejoin:round;stroke-miterlimit:10;}
	.st15{fill:none;stroke:#3E3E40;stroke-width:30.2039;stroke-miterlimit:10;}
	.st16{fill:#3E3E40;stroke:#3F3F40;stroke-width:6.715;stroke-linecap:round;stroke-linejoin:round;stroke-miterlimit:10;}
	.st17{fill:#5D93A6;}
	.st18{fill:#72B6CC;}
	.st19{fill:#6FB5CA;}
	.st20{fill:#595959;}
</style>
<g id="Layer_1">
</g>
<g id="Layer_20">
</g>
<g id="Layer_19">
</g>
<g id="Layer_18">
</g>
<g id="Layer_17">
</g>
<g id="Layer_16">
</g>
<g id="Layer_15">
</g>
<g id="Layer_14">
</g>
<g id="Layer_13">
</g>
<g id="Layer_12">
</g>
<g id="Layer_11">
</g>
<g id="Layer_10">
</g>
<g id="Layer_9">
</g>
<g id="Layer_8">
</g>
<g id="Layer_7">
</g>
<g id="Layer_6">
</g>
<g id="Layer_5">
</g>
<g id="Layer_4">
</g>
<g id="Layer_3">
</g>
<g id="Layer_2">
	<g>
		<circle class="st5" cx="960" cy="960" r="686.11"/>
		<path class="st2" d="M618.7,1654.99L284.81,1321.1c-44.91-44.91-44.91-117.72,0-162.63l0,0c44.91-44.91,117.72-44.91,162.63,0
			l333.89,333.89c44.91,44.91,44.91,117.72,0,162.63l0,0C736.42,1699.9,663.61,1699.9,618.7,1654.99z"/>
		<path class="st2" d="M617.06,1539.58L1281.89,285.4c27.34-51.57,91.31-71.22,142.88-43.88l0,0
			c51.57,27.34,71.22,91.31,43.88,142.88L803.83,1638.58c-27.34,51.57-91.31,71.22-142.88,43.88l0,0
			C609.37,1655.12,589.73,1591.15,617.06,1539.58z"/>
		<polygon class="st6" points="808.64,1629.89 1428.99,459.21 1485.4,518.74 877.95,1641.25 		"/>
	</g>
</g>
</svg>
