<?xml version="1.0" encoding="utf-8"?>
<!-- Generator: Adobe Adobe Illustrator 24.2.0, SVG Export Plug-In . SVG Version: 6.00 Build 0)  -->
<svg version="1.1" xmlns="http://www.w3.org/2000/svg" xmlns:xlink="http://www.w3.org/1999/xlink" x="0px" y="0px"
	 viewBox="0 0 1920 1920" style="enable-background:new 0 0 1920 1920;" xml:space="preserve">
<style type="text/css">
	.st0{fill:#F66550;}
	.st1{fill:#FFFFFF;}
	.st2{fill:#3E3E40;}
	.st3{fill:#B54A3A;}
	.st4{fill:#C4C4C4;}
	.st5{fill:#78B8D8;}
	.st6{fill:#5F93A6;}
	.st7{fill:#808080;}
	.st8{fill:#595858;}
	.st9{fill:#F46450;}
	.st10{fill:#74B7D0;}
	.st11{fill:#5E93A6;}
	.st12{fill:#FDFDFC;}
	.st13{fill:#3E3E40;stroke:#3E3E40;stroke-miterlimit:10;}
	.st14{fill:none;stroke:#3E3E40;stroke-width:22.6193;stroke-linecap:round;stroke-linejoin:round;stroke-miterlimit:10;}
	.st15{fill:none;stroke:#3E3E40;stroke-width:30.2039;stroke-miterlimit:10;}
	.st16{fill:#3E3E40;stroke:#3F3F40;stroke-width:6.715;stroke-linecap:round;stroke-linejoin:round;stroke-miterlimit:10;}
	.st17{fill:#5D93A6;}
	.st18{fill:#72B6CC;}
	.st19{fill:#6FB5CA;}
	.st20{fill:#595959;}
</style>
<g id="Layer_1">
</g>
<g id="Layer_20">
</g>
<g id="Layer_19">
</g>
<g id="Layer_18">
</g>
<g id="Layer_17">
</g>
<g id="Layer_16">
</g>
<g id="Layer_15">
</g>
<g id="Layer_14">
</g>
<g id="Layer_13">
</g>
<g id="Layer_12">
</g>
<g id="Layer_11">
</g>
<g id="Layer_10">
</g>
<g id="Layer_9">
</g>
<g id="Layer_8">
</g>
<g id="Layer_7">
</g>
<g id="Layer_6">
	<g>
		<circle class="st18" cx="960" cy="1023.21" r="686.11"/>
		<path class="st17" d="M327.3,1123.19l1310,0.03c-5.25,38.72-19.56,64.63-19.56,64.63l-1216.64-0.62
			C360.23,1187.21,327.15,1158.51,327.3,1123.19L327.3,1123.19z"/>
		<path class="st2" d="M854.29,1732.95l0.03-1419.49c0-58.37,47.32-105.69,105.69-105.69h0c58.37,0,105.69,47.32,105.69,105.69
			l-0.03,1419.49c0,58.37-47.32,105.69-105.69,105.69h0C901.61,1838.64,854.29,1791.32,854.29,1732.95z"/>
		<path class="st17" d="M1065.67,1701.18l0.03-1300h0c38.11,0.85,68.58,34.3,68.56,75.25l-0.59,1211.24
			C1133.68,1687.67,1098.45,1696.56,1065.67,1701.18z"/>
		<path class="st2" d="M250.26,917.5l1419.49,0.03c58.37,0,105.69,47.32,105.69,105.69v0c0,58.37-47.32,105.69-105.69,105.69
			l-1419.49-0.03c-58.37,0-105.69-47.32-105.69-105.69v0C144.57,964.82,191.89,917.5,250.26,917.5z"/>
	</g>
</g>
<g id="Layer_5">
</g>
<g id="Layer_4">
</g>
<g id="Layer_3">
</g>
<g id="Layer_2">
</g>
</svg>
