<?xml version="1.0" encoding="utf-8"?>
<!-- Generator: Adobe Adobe Illustrator 24.2.0, SVG Export Plug-In . SVG Version: 6.00 Build 0)  -->
<svg version="1.1" xmlns="http://www.w3.org/2000/svg" xmlns:xlink="http://www.w3.org/1999/xlink" x="0px" y="0px"
	 viewBox="0 0 1920 1920" style="enable-background:new 0 0 1920 1920;" xml:space="preserve">
<style type="text/css">
	.st0{fill:#F66550;}
	.st1{fill:#FFFFFF;}
	.st2{fill:#3E3E40;}
	.st3{fill:#B54A3A;}
	.st4{fill:#C4C4C4;}
	.st5{fill:#78B8D8;}
	.st6{fill:#5F93A6;}
	.st7{fill:#78C570;}
	.st8{fill:#64AB62;}
	.st9{fill:#808080;}
	.st10{fill:#595858;}
	.st11{fill:#F46450;}
	.st12{fill:#74B7D0;}
	.st13{fill:#5E93A6;}
	.st14{fill:#FDFDFC;}
	.st15{fill:#3E3E40;stroke:#3E3E40;stroke-miterlimit:10;}
	.st16{fill:none;stroke:#3E3E40;stroke-width:22.6193;stroke-linecap:round;stroke-linejoin:round;stroke-miterlimit:10;}
	.st17{fill:none;stroke:#3E3E40;stroke-width:30.2039;stroke-miterlimit:10;}
	.st18{fill:#3E3E40;stroke:#3F3F40;stroke-width:6.715;stroke-linecap:round;stroke-linejoin:round;stroke-miterlimit:10;}
	.st19{fill:#5D93A6;}
	.st20{fill:#72B6CC;}
	.st21{fill:#6FB5CA;}
	.st22{fill:#595959;}
	.st23{fill:#78C972;}
	.st24{fill:#66AB62;}
	.st25{fill:#65AB62;}
	.st26{fill:#F16450;}
</style>
<g id="Layer_1">
</g>
<g id="Layer_20">
</g>
<g id="Layer_19">
</g>
<g id="Layer_18">
</g>
<g id="Layer_17">
</g>
<g id="Layer_16">
</g>
<g id="Layer_15">
</g>
<g id="Layer_14">
</g>
<g id="Layer_13">
</g>
<g id="Layer_12">
</g>
<g id="Layer_11">
</g>
<g id="Layer_10">
	<circle class="st10" cx="960" cy="981.28" r="745.45"/>
</g>
<g id="Layer_9">
</g>
<g id="Layer_8">
</g>
<g id="Layer_7">
</g>
<g id="Layer_6">
</g>
<g id="Layer_5">
	<g>
		<circle class="st2" cx="1016.37" cy="1469.62" r="128.23"/>
		<path class="st2" d="M771.57,370.1c0-135.2,92.62-169.24,223-133.47c158.78,43.56,266.59,1.91,266.59,133.47
			c0,135.2-109.6,244.79-244.79,244.79S771.57,505.3,771.57,370.1z"/>
		<polygon class="st2" points="889.78,1490.13 772.53,391.84 1259.65,397.43 1143.42,1486.95 		"/>
	</g>
	<path class="st2" d="M861.38,1782.04c0-70.82,57.41-128.23,128.23-128.23s103.13,16.04,121.51,57.58c0,0-93.53,21.2-126.51,26.87
		C952.38,1743.81,861.38,1852.86,861.38,1782.04z"/>
	<circle class="st26" cx="960" cy="1758.35" r="128.23"/>
	<g>
		<circle class="st26" cx="960" cy="1420.3" r="128.23"/>
		<circle class="st26" cx="960" cy="320.78" r="244.79"/>
		<polygon class="st26" points="833.41,1440.81 716.16,342.52 1203.28,348.11 1087.06,1437.63 		"/>
	</g>
</g>
<g id="Layer_4">
</g>
<g id="Layer_3">
</g>
<g id="Layer_2">
</g>
</svg>
