<?xml version="1.0" encoding="utf-8"?>
<!-- Generator: Adobe Adobe Illustrator 24.2.0, SVG Export Plug-In . SVG Version: 6.00 Build 0)  -->
<svg version="1.1" xmlns="http://www.w3.org/2000/svg" xmlns:xlink="http://www.w3.org/1999/xlink" x="0px" y="0px"
	 viewBox="0 0 1920 1920" style="enable-background:new 0 0 1920 1920;" xml:space="preserve">
<style type="text/css">
	.st0{fill:#F66550;}
	.st1{fill:#FFFFFF;}
	.st2{fill:#3E3E40;}
	.st3{fill:#B54A3A;}
	.st4{fill:#C4C4C4;}
	.st5{fill:#78B8D8;}
	.st6{fill:#5F93A6;}
	.st7{fill:#808080;}
	.st8{fill:#595858;}
	.st9{fill:#F46450;}
	.st10{fill:#74B7D0;}
	.st11{fill:#5E93A6;}
	.st12{fill:#FDFDFC;}
	.st13{fill:#3E3E40;stroke:#3E3E40;stroke-miterlimit:10;}
	.st14{fill:none;stroke:#3E3E40;stroke-width:22.6193;stroke-linecap:round;stroke-linejoin:round;stroke-miterlimit:10;}
	.st15{fill:none;stroke:#3E3E40;stroke-width:30.2039;stroke-miterlimit:10;}
	.st16{fill:#3E3E40;stroke:#3F3F40;stroke-width:6.715;stroke-linecap:round;stroke-linejoin:round;stroke-miterlimit:10;}
	.st17{fill:#5D93A6;}
	.st18{fill:#72B6CC;}
	.st19{fill:#6FB5CA;}
	.st20{fill:#595959;}
</style>
<g id="Layer_1">
</g>
<g id="Layer_20">
</g>
<g id="Layer_19">
</g>
<g id="Layer_18">
</g>
<g id="Layer_17">
</g>
<g id="Layer_16">
</g>
<g id="Layer_15">
</g>
<g id="Layer_14">
	<g>
		<circle class="st5" cx="960" cy="960" r="686.11"/>
		<circle class="st17" cx="987.49" cy="928.16" r="258.66"/>
		<g>
			<g>
				<path class="st11" d="M1380.78,1501.52c19.89-13.42,35.08-28.37,52.35-44.78c3.47-8.12,5.45-17.15,5.45-27.28
					c0-76.56-98.35-159.2-168.63-166c-65.76-6.36-64.63,116.29-64.63,166c0,49.71,51.56,101,117.63,101
					c16.3-7.04,39.07-14.79,60.1-25.99L1380.78,1501.52z"/>
			</g>
		</g>
		<g>
			<polygon class="st17" points="736.69,868.17 794.34,681.41 1168.34,681.41 1239.01,866.95 			"/>
			<path class="st17" d="M550,670.96L550,670.96c0-13.81,11.19-25,25-25h826c13.81,0,25,11.19,25,25v0c0,13.81-11.19,25-25,25H575
				C561.19,695.96,550,684.77,550,670.96z"/>
			<rect x="599.52" y="681.41" class="st17" width="14" height="180"/>
			<path class="st17" d="M588.52,1013.66v-158c0-9.94,8.06-18,18-18l0,0c9.94,0,18,8.06,18,18v158c0,9.94-8.06,18-18,18l0,0
				C596.57,1031.66,588.52,1023.6,588.52,1013.66z"/>
		</g>
		<g>
			<path class="st2" d="M522,635.51L522,635.51c0-13.81,11.19-25,25-25h826c13.81,0,25,11.19,25,25l0,0c0,13.81-11.19,25-25,25H547
				C533.19,660.51,522,649.31,522,635.51z"/>
			<rect x="571.52" y="645.96" class="st2" width="14" height="180"/>
			<path class="st2" d="M560.52,978.21v-158c0-9.94,8.06-18,18-18l0,0c9.94,0,18,8.06,18,18v158c0,9.94-8.06,18-18,18l0,0
				C568.57,996.21,560.52,988.15,560.52,978.21z"/>
			<polygon class="st2" points="708.69,832.72 766.34,645.96 1140.34,645.96 1211.01,831.5 			"/>
		</g>
		<ellipse class="st2" cx="960" cy="1433.46" rx="445" ry="244.92"/>
		<circle class="st2" cx="960" cy="894.16" r="258.66"/>
	</g>
</g>
<g id="Layer_13">
</g>
<g id="Layer_12">
</g>
<g id="Layer_11">
</g>
<g id="Layer_10">
</g>
<g id="Layer_9">
</g>
<g id="Layer_8">
</g>
<g id="Layer_7">
</g>
<g id="Layer_6">
</g>
<g id="Layer_5">
</g>
<g id="Layer_4">
</g>
<g id="Layer_3">
</g>
<g id="Layer_2">
</g>
</svg>
