<?xml version="1.0" encoding="utf-8"?>
<!-- Generator: Adobe Adobe Illustrator 24.2.0, SVG Export Plug-In . SVG Version: 6.00 Build 0)  -->
<svg version="1.1" xmlns="http://www.w3.org/2000/svg" xmlns:xlink="http://www.w3.org/1999/xlink" x="0px" y="0px"
	 viewBox="0 0 1920 1920" style="enable-background:new 0 0 1920 1920;" xml:space="preserve">
<style type="text/css">
	.st0{fill:#F66550;}
	.st1{fill:#FFFFFF;}
	.st2{fill:#3E3E40;}
	.st3{fill:#B54A3A;}
	.st4{fill:#C4C4C4;}
	.st5{fill:#78B8D8;}
	.st6{fill:#5F93A6;}
	.st7{fill:#808080;}
	.st8{fill:#595858;}
	.st9{fill:#F46450;}
	.st10{fill:#74B7D0;}
	.st11{fill:#5E93A6;}
	.st12{fill:#FDFDFC;}
	.st13{fill:#3E3E40;stroke:#3E3E40;stroke-miterlimit:10;}
	.st14{fill:none;stroke:#3E3E40;stroke-width:22.6193;stroke-linecap:round;stroke-linejoin:round;stroke-miterlimit:10;}
	.st15{fill:none;stroke:#3E3E40;stroke-width:30.2039;stroke-miterlimit:10;}
	.st16{fill:#3E3E40;stroke:#3F3F40;stroke-width:6.715;stroke-linecap:round;stroke-linejoin:round;stroke-miterlimit:10;}
	.st17{fill:#5D93A6;}
	.st18{fill:#72B6CC;}
	.st19{fill:#6FB5CA;}
	.st20{fill:#595959;}
</style>
<g id="Layer_1">
</g>
<g id="Layer_20">
</g>
<g id="Layer_19">
</g>
<g id="Layer_18">
</g>
<g id="Layer_17">
</g>
<g id="Layer_16">
</g>
<g id="Layer_15">
</g>
<g id="Layer_14">
</g>
<g id="Layer_13">
</g>
<g id="Layer_12">
</g>
<g id="Layer_11">
</g>
<g id="Layer_10">
	<g>
		<circle class="st7" cx="960" cy="960" r="686.11"/>
		<g>
			<path class="st8" d="M314.38,1192.72l413.07,265.47c43.05,26.12,98.12-4.87,98.12-55.23V746.57c0-50.36-55.06-81.35-98.12-55.23
				L324.58,925.88C283.13,951.03,248.4,1009.09,314.38,1192.72z"/>
			<path class="st20" d="M695.56,1080.68c0,0,939.91-234.65,939.91,0.33c0,46.44-39.82,137.71-39.82,137.71l-900.09-8.04V1080.68z"
				/>
		</g>
		<g>
			<path class="st2" d="M715.99,775h910c102.17,0,185,82.83,185,185v0c0,102.17-82.83,185-185,185h-910c-102.17,0-185-82.83-185-185
				v0C530.99,857.83,613.82,775,715.99,775z"/>
			<path class="st2" d="M140.1,1015.23l540.86,328.19c43.05,26.12,98.12-4.87,98.12-55.23V631.81c0-50.36-55.06-81.35-98.12-55.23
				L140.1,904.77C98.64,929.92,98.64,990.08,140.1,1015.23z"/>
		</g>
	</g>
</g>
<g id="Layer_9">
</g>
<g id="Layer_8">
</g>
<g id="Layer_7">
</g>
<g id="Layer_6">
</g>
<g id="Layer_5">
</g>
<g id="Layer_4">
</g>
<g id="Layer_3">
</g>
<g id="Layer_2">
</g>
</svg>
