<?xml version="1.0" encoding="utf-8"?>
<!-- Generator: Adobe Adobe Illustrator 24.2.0, SVG Export Plug-In . SVG Version: 6.00 Build 0)  -->
<svg version="1.1" xmlns="http://www.w3.org/2000/svg" xmlns:xlink="http://www.w3.org/1999/xlink" x="0px" y="0px"
	 viewBox="0 0 1920 1920" style="enable-background:new 0 0 1920 1920;" xml:space="preserve">
<style type="text/css">
	.st0{fill:#F66550;}
	.st1{fill:#FFFFFF;}
	.st2{fill:#3E3E40;}
	.st3{fill:#B54A3A;}
	.st4{fill:#C4C4C4;}
	.st5{fill:#78B8D8;}
	.st6{fill:#5F93A6;}
	.st7{fill:#808080;}
	.st8{fill:#595858;}
	.st9{fill:#F46450;}
	.st10{fill:#74B7D0;}
	.st11{fill:#5E93A6;}
	.st12{fill:#FDFDFC;}
	.st13{fill:#3E3E40;stroke:#3E3E40;stroke-miterlimit:10;}
	.st14{fill:none;stroke:#3E3E40;stroke-width:22.6193;stroke-linecap:round;stroke-linejoin:round;stroke-miterlimit:10;}
	.st15{fill:none;stroke:#3E3E40;stroke-width:30.2039;stroke-miterlimit:10;}
	.st16{fill:#3E3E40;stroke:#3F3F40;stroke-width:6.715;stroke-linecap:round;stroke-linejoin:round;stroke-miterlimit:10;}
	.st17{fill:#5D93A6;}
	.st18{fill:#72B6CC;}
	.st19{fill:#6FB5CA;}
	.st20{fill:#595959;}
</style>
<g id="Layer_1">
</g>
<g id="Layer_20">
</g>
<g id="Layer_19">
</g>
<g id="Layer_18">
</g>
<g id="Layer_17">
	<g>
		<path class="st10" d="M180,1726.17V394.22c0-83.64,67.81-151.45,151.45-151.45h1257.1c83.64,0,151.45,67.81,151.45,151.45v1331.95
			c0,83.64-67.81,151.45-151.45,151.45H331.45C247.81,1877.62,180,1809.82,180,1726.17z"/>
		<path class="st11" d="M425.2,1642.35V605.65C425.2,522,493,454.2,576.65,454.2h947.1c83.64,0,151.45,67.81,151.45,151.45v1036.7
			c0,83.64-67.81,151.45-151.45,151.45h-947.1C493,1793.8,425.2,1726,425.2,1642.35z"/>
		<path class="st12" d="M278.7,1598.27V561.57c0-83.64,67.81-151.45,151.45-151.45h1037.1c83.64,0,151.45,67.81,151.45,151.45
			v1036.7c0,83.64-67.81,151.45-151.45,151.45H430.15C346.51,1749.72,278.7,1681.91,278.7,1598.27z"/>
		<path class="st2" d="M425.2,454.03v-192.5c0-29.69,24.06-53.75,53.75-53.75h0c29.69,0,53.75,24.06,53.75,53.75v192.5
			c0,29.69-24.06,53.75-53.75,53.75h0C449.26,507.78,425.2,483.71,425.2,454.03z"/>
		<path class="st2" d="M651.95,454.03v-192.5c0-29.69,24.06-53.75,53.75-53.75h0c29.69,0,53.75,24.06,53.75,53.75v192.5
			c0,29.69-24.06,53.75-53.75,53.75h0C676.01,507.78,651.95,483.71,651.95,454.03z"/>
		<path class="st2" d="M884.95,454.03v-192.5c0-29.69,24.06-53.75,53.75-53.75h0c29.69,0,53.75,24.06,53.75,53.75v192.5
			c0,29.69-24.06,53.75-53.75,53.75h0C909.01,507.78,884.95,483.71,884.95,454.03z"/>
		<path class="st2" d="M1094.95,454.03v-192.5c0-29.69,24.06-53.75,53.75-53.75h0c29.69,0,53.75,24.06,53.75,53.75v192.5
			c0,29.69-24.06,53.75-53.75,53.75h0C1119.01,507.78,1094.95,483.71,1094.95,454.03z"/>
		<path class="st2" d="M1297.95,454.03v-192.5c0-29.69,24.06-53.75,53.75-53.75h0c29.69,0,53.75,24.06,53.75,53.75v192.5
			c0,29.69-24.06,53.75-53.75,53.75h0C1322.01,507.78,1297.95,483.71,1297.95,454.03z"/>
		<path class="st2" d="M446.5,776.2v-80c0-16.57,13.43-30,30-30h120c16.57,0,30,13.43,30,30v80c0,16.57-13.43,30-30,30h-120
			C459.93,806.2,446.5,792.77,446.5,776.2z"/>
		<path class="st2" d="M656.5,776.2v-80c0-16.57,13.43-30,30-30h120c16.57,0,30,13.43,30,30v80c0,16.57-13.43,30-30,30h-120
			C669.93,806.2,656.5,792.77,656.5,776.2z"/>
		<path class="st2" d="M866.5,776.2v-80c0-16.57,13.43-30,30-30h120c16.57,0,30,13.43,30,30v80c0,16.57-13.43,30-30,30h-120
			C879.93,806.2,866.5,792.77,866.5,776.2z"/>
		<path class="st2" d="M1069.5,776.2v-80c0-16.57,13.43-30,30-30h120c16.57,0,30,13.43,30,30v80c0,16.57-13.43,30-30,30h-120
			C1082.93,806.2,1069.5,792.77,1069.5,776.2z"/>
		<path class="st2" d="M1272.5,776.2v-80c0-16.57,13.43-30,30-30h120c16.57,0,30,13.43,30,30v80c0,16.57-13.43,30-30,30h-120
			C1285.93,806.2,1272.5,792.77,1272.5,776.2z"/>
		<path class="st2" d="M453.5,992.2v-80c0-16.57,13.43-30,30-30h120c16.57,0,30,13.43,30,30v80c0,16.57-13.43,30-30,30h-120
			C466.93,1022.2,453.5,1008.77,453.5,992.2z"/>
		<path class="st2" d="M663.5,992.2v-80c0-16.57,13.43-30,30-30h120c16.57,0,30,13.43,30,30v80c0,16.57-13.43,30-30,30h-120
			C676.93,1022.2,663.5,1008.77,663.5,992.2z"/>
		<path class="st2" d="M873.5,992.2v-80c0-16.57,13.43-30,30-30h120c16.57,0,30,13.43,30,30v80c0,16.57-13.43,30-30,30h-120
			C886.93,1022.2,873.5,1008.77,873.5,992.2z"/>
		<path class="st2" d="M1076.5,992.2v-80c0-16.57,13.43-30,30-30h120c16.57,0,30,13.43,30,30v80c0,16.57-13.43,30-30,30h-120
			C1089.93,1022.2,1076.5,1008.77,1076.5,992.2z"/>
		<path class="st2" d="M1279.5,992.2v-80c0-16.57,13.43-30,30-30h120c16.57,0,30,13.43,30,30v80c0,16.57-13.43,30-30,30h-120
			C1292.93,1022.2,1279.5,1008.77,1279.5,992.2z"/>
		<path class="st2" d="M460.5,1208.2v-80c0-16.57,13.43-30,30-30h120c16.57,0,30,13.43,30,30v80c0,16.57-13.43,30-30,30h-120
			C473.93,1238.2,460.5,1224.77,460.5,1208.2z"/>
		<path class="st2" d="M670.5,1208.2v-80c0-16.57,13.43-30,30-30h120c16.57,0,30,13.43,30,30v80c0,16.57-13.43,30-30,30h-120
			C683.93,1238.2,670.5,1224.77,670.5,1208.2z"/>
		<path class="st2" d="M880.5,1208.2v-80c0-16.57,13.43-30,30-30h120c16.57,0,30,13.43,30,30v80c0,16.57-13.43,30-30,30h-120
			C893.93,1238.2,880.5,1224.77,880.5,1208.2z"/>
		<path class="st2" d="M1083.5,1208.2v-80c0-16.57,13.43-30,30-30h120c16.57,0,30,13.43,30,30v80c0,16.57-13.43,30-30,30h-120
			C1096.93,1238.2,1083.5,1224.77,1083.5,1208.2z"/>
		<path class="st2" d="M1286.5,1208.2v-80c0-16.57,13.43-30,30-30h120c16.57,0,30,13.43,30,30v80c0,16.57-13.43,30-30,30h-120
			C1299.93,1238.2,1286.5,1224.77,1286.5,1208.2z"/>
		<path class="st2" d="M467.5,1424.2v-80c0-16.57,13.43-30,30-30h120c16.57,0,30,13.43,30,30v80c0,16.57-13.43,30-30,30h-120
			C480.93,1454.2,467.5,1440.77,467.5,1424.2z"/>
		<path class="st2" d="M677.5,1424.2v-80c0-16.57,13.43-30,30-30h120c16.57,0,30,13.43,30,30v80c0,16.57-13.43,30-30,30h-120
			C690.93,1454.2,677.5,1440.77,677.5,1424.2z"/>
		<path class="st2" d="M887.5,1424.2v-80c0-16.57,13.43-30,30-30h120c16.57,0,30,13.43,30,30v80c0,16.57-13.43,30-30,30h-120
			C900.93,1454.2,887.5,1440.77,887.5,1424.2z"/>
		<path class="st2" d="M1090.5,1424.2v-80c0-16.57,13.43-30,30-30h120c16.57,0,30,13.43,30,30v80c0,16.57-13.43,30-30,30h-120
			C1103.93,1454.2,1090.5,1440.77,1090.5,1424.2z"/>
		<path class="st2" d="M1293.5,1424.2v-80c0-16.57,13.43-30,30-30h120c16.57,0,30,13.43,30,30v80c0,16.57-13.43,30-30,30h-120
			C1306.93,1454.2,1293.5,1440.77,1293.5,1424.2z"/>
	</g>
</g>
<g id="Layer_16">
</g>
<g id="Layer_15">
</g>
<g id="Layer_14">
</g>
<g id="Layer_13">
</g>
<g id="Layer_12">
</g>
<g id="Layer_11">
</g>
<g id="Layer_10">
</g>
<g id="Layer_9">
</g>
<g id="Layer_8">
</g>
<g id="Layer_7">
</g>
<g id="Layer_6">
</g>
<g id="Layer_5">
</g>
<g id="Layer_4">
</g>
<g id="Layer_3">
</g>
<g id="Layer_2">
</g>
</svg>
