<?xml version="1.0" encoding="utf-8"?>
<!-- Generator: Adobe Adobe Illustrator 24.2.0, SVG Export Plug-In . SVG Version: 6.00 Build 0)  -->
<svg version="1.1" xmlns="http://www.w3.org/2000/svg" xmlns:xlink="http://www.w3.org/1999/xlink" x="0px" y="0px"
	 viewBox="0 0 1920 1920" style="enable-background:new 0 0 1920 1920;" xml:space="preserve">
<style type="text/css">
	.st0{fill:#F66550;}
	.st1{fill:#FFFFFF;}
	.st2{fill:#3E3E40;}
	.st3{fill:#B54A3A;}
	.st4{fill:#C4C4C4;}
	.st5{fill:#78B8D8;}
	.st6{fill:#5F93A6;}
	.st7{fill:#808080;}
	.st8{fill:#595858;}
	.st9{fill:#F46450;}
	.st10{fill:#74B7D0;}
	.st11{fill:#5E93A6;}
	.st12{fill:#FDFDFC;}
	.st13{fill:#3E3E40;stroke:#3E3E40;stroke-miterlimit:10;}
	.st14{fill:none;stroke:#3E3E40;stroke-width:22.6193;stroke-linecap:round;stroke-linejoin:round;stroke-miterlimit:10;}
	.st15{fill:none;stroke:#3E3E40;stroke-width:30.2039;stroke-miterlimit:10;}
	.st16{fill:#3E3E40;stroke:#3F3F40;stroke-width:6.715;stroke-linecap:round;stroke-linejoin:round;stroke-miterlimit:10;}
	.st17{fill:#5D93A6;}
	.st18{fill:#72B6CC;}
	.st19{fill:#6FB5CA;}
	.st20{fill:#595959;}
</style>
<g id="Layer_1">
</g>
<g id="Layer_20">
</g>
<g id="Layer_19">
</g>
<g id="Layer_18">
</g>
<g id="Layer_17">
</g>
<g id="Layer_16">
</g>
<g id="Layer_15">
</g>
<g id="Layer_14">
</g>
<g id="Layer_13">
</g>
<g id="Layer_12">
</g>
<g id="Layer_11">
</g>
<g id="Layer_10">
</g>
<g id="Layer_9">
</g>
<g id="Layer_8">
</g>
<g id="Layer_7">
</g>
<g id="Layer_6">
</g>
<g id="Layer_5">
</g>
<g id="Layer_4">
</g>
<g id="Layer_3">
	<g>
		<circle class="st9" cx="960" cy="960" r="686.11"/>
		<path class="st3" d="M840.61,982l527.6,527.65c-29.49,25.27-56.48,44.77-56.48,44.77L798,1035.57
			C798,1035.57,819.31,1007.05,840.61,982z"/>
		<path class="st2" d="M383.39,1387.12L1387.14,383.41c41.28-41.27,108.19-41.27,149.47,0l0,0c41.27,41.27,41.27,108.19,0,149.46
			L532.86,1536.59c-41.27,41.27-108.19,41.27-149.47,0l0,0C342.11,1495.31,342.12,1428.39,383.39,1387.12z"/>
		<path class="st3" d="M555.32,1514.12l958.81-958.77c23.54,31.22,39.99,61.27,39.99,61.27l-940.74,935.62
			C613.38,1552.24,581.91,1533.89,555.32,1514.12z"/>
		<path class="st2" d="M532.88,383.39l1003.71,1003.75c41.27,41.28,41.27,108.19,0,149.47l0,0c-41.27,41.27-108.19,41.27-149.46,0
			L383.41,532.86c-41.27-41.27-41.27-108.19,0-149.47l0,0C424.69,342.11,491.61,342.12,532.88,383.39z"/>
	</g>
</g>
<g id="Layer_2">
</g>
</svg>
