<?xml version="1.0" encoding="utf-8"?>
<!-- Generator: Adobe Adobe Illustrator 24.2.0, SVG Export Plug-In . SVG Version: 6.00 Build 0)  -->
<svg version="1.1" xmlns="http://www.w3.org/2000/svg" xmlns:xlink="http://www.w3.org/1999/xlink" x="0px" y="0px"
	 viewBox="0 0 1920 1920" style="enable-background:new 0 0 1920 1920;" xml:space="preserve">
<style type="text/css">
	.st0{fill:#F66550;}
	.st1{fill:#FFFFFF;}
	.st2{fill:#3E3E40;}
	.st3{fill:#B54A3A;}
	.st4{fill:#C4C4C4;}
	.st5{fill:#78B8D8;}
	.st6{fill:#5F93A6;}
	.st7{fill:#808080;}
	.st8{fill:#595858;}
	.st9{fill:#F46450;}
	.st10{fill:#74B7D0;}
	.st11{fill:#5E93A6;}
	.st12{fill:#FDFDFC;}
	.st13{fill:#3E3E40;stroke:#3E3E40;stroke-miterlimit:10;}
	.st14{fill:none;stroke:#3E3E40;stroke-width:22.6193;stroke-linecap:round;stroke-linejoin:round;stroke-miterlimit:10;}
	.st15{fill:none;stroke:#3E3E40;stroke-width:30.2039;stroke-miterlimit:10;}
	.st16{fill:none;}
	.st17{fill:#3E3E40;stroke:#3F3F40;stroke-width:7.0622;stroke-linecap:round;stroke-linejoin:round;stroke-miterlimit:10;}
	.st18{font-family:'Montserrat-Regular';}
	.st19{font-size:123.5914px;}
	.st20{fill:#3E3E40;stroke:#3F3F40;stroke-width:6.715;stroke-linecap:round;stroke-linejoin:round;stroke-miterlimit:10;}
	.st21{fill:#5D93A6;}
	.st22{fill:#72B6CC;}
	.st23{fill:#6FB5CA;}
	.st24{fill:#595959;}
</style>
<g id="Layer_1">
</g>
<g id="Layer_20">
</g>
<g id="Layer_19">
</g>
<g id="Layer_18">
	<g>
		<path class="st10" d="M262.78,1704.79V372.84c0-83.64,67.81-151.45,151.45-151.45h1091.53c83.64,0,151.45,67.81,151.45,151.45
			v1331.95c0,83.64-67.81,151.45-151.45,151.45H414.24C330.59,1856.24,262.78,1788.44,262.78,1704.79z"/>
		<path class="st11" d="M425.2,1616.35V579.65C425.2,496,493,428.2,576.65,428.2h839.7c83.64,0,151.45,67.81,151.45,151.45v1036.7
			c0,83.64-67.81,151.45-151.45,151.45h-839.7C493,1767.8,425.2,1700,425.2,1616.35z"/>
		<path class="st12" d="M388.7,1572.27V535.57c0-83.64,67.81-151.45,151.45-151.45h839.7c83.64,0,151.45,67.81,151.45,151.45v1036.7
			c0,83.64-67.81,151.45-151.45,151.45h-839.7C456.51,1723.72,388.7,1655.91,388.7,1572.27z"/>
		<path class="st2" d="M570,319.9V208.5c0-52.08,42.22-94.3,94.3-94.3h591.4c52.08,0,94.3,42.22,94.3,94.3v111.4
			c0,52.08-42.22,94.3-94.3,94.3H664.3C612.22,414.2,570,371.98,570,319.9z"/>
		<path class="st2" d="M570,624.2L570,624.2c0-16.57,13.43-30,30-30h720c16.57,0,30,13.43,30,30l0,0c0,16.57-13.43,30-30,30H600
			C583.43,654.2,570,640.77,570,624.2z"/>
		<path class="st2" d="M565,740.2L565,740.2c0-16.57,13.43-30,30-30h480c16.57,0,30,13.43,30,30l0,0c0,16.57-13.43,30-30,30H595
			C578.43,770.2,565,756.77,565,740.2z"/>
		<path class="st2" d="M950.71,856.2L950.71,856.2c0-16.57,13.43-30,30-30h330c16.57,0,30,13.43,30,30l0,0c0,16.57-13.43,30-30,30
			h-330C964.14,886.2,950.71,872.77,950.71,856.2z"/>
		<path class="st2" d="M599.47,1103.58L599.47,1103.58c0-26.6,21.56-48.16,48.16-48.16h161.69c26.6,0,48.16,21.56,48.16,48.16l0,0
			c0,26.6-21.56,48.16-48.16,48.16H647.63C621.03,1151.74,599.47,1130.18,599.47,1103.58z"/>
		<path class="st2" d="M885.71,1104.21v-8.31c0-24.3,19.7-44,44-44h0c24.3,0,44,19.7,44,44v8.31c0,24.3-19.7,44-44,44h0
			C905.41,1148.21,885.71,1128.51,885.71,1104.21z"/>
		<path class="st2" d="M994.5,1104.21v-8.31c0-24.3,19.7-44,44-44h0c24.3,0,44,19.7,44,44v8.31c0,24.3-19.7,44-44,44h0
			C1014.2,1148.21,994.5,1128.51,994.5,1104.21z"/>
		<path class="st2" d="M1099.71,1104.21v-8.31c0-24.3,19.7-44,44-44h0c24.3,0,44,19.7,44,44v8.31c0,24.3-19.7,44-44,44h0
			C1119.41,1148.21,1099.71,1128.51,1099.71,1104.21z"/>
		<path class="st2" d="M1158.21,740.2L1158.21,740.2c0-16.57,13.43-30,30-30h112.5c16.57,0,30,13.43,30,30l0,0
			c0,16.57-13.43,30-30,30h-112.5C1171.64,770.2,1158.21,756.77,1158.21,740.2z"/>
		<path class="st15" d="M565,1210.2V989.92c0-15.46,12.54-28,28-28h734c15.46,0,28,12.54,28,28v220.28c0,15.46-12.54,28-28,28H593
			C577.54,1238.2,565,1225.66,565,1210.2z"/>
		<path class="st13" d="M1000,1559.2L1000,1559.2c0-8.28,6.72-15,15-15h360c8.28,0,15,6.72,15,15l0,0c0,8.28-6.72,15-15,15h-360
			C1006.72,1574.2,1000,1567.48,1000,1559.2z"/>
		<path class="st2" d="M560,856.2L560,856.2c0-16.57,13.43-30,30-30h230c16.57,0,30,13.43,30,30l0,0c0,16.57-13.43,30-30,30H590
			C573.43,886.2,560,872.77,560,856.2z"/>
		<path class="st14" d="M1082.48,1561.2c-7.01,24.11-7.46,62.27-3.47,87.06c0.64,3.98,15.7,56.72,18.67,54.01
			c0.85-0.78,6.79-50.71,7.05-51.84c24.68-106.54,66.79-245.74,149.63-349.62c0.87-1.09,2.56,0.04,1.91,1.28
			c-63.74,121.59-103.65,198.78-124.54,330.63c5-2.57,7.62-8.12,9.8-13.32c18.34-43.62,32.02-90.93,62.82-126.48
			c0.89-1.03,2.57-0.1,2.17,1.21c-7.69,25.35-18.17,56.38-18.44,82.37c-0.02,1.48,1.74,2.26,2.82,1.26
			c15.36-14.35,20.76-45.93,34.24-62.56c0.79-0.97,2.34-0.26,2.16,0.97c-3.16,21.42-5.32,42.99-6.47,64.61
			c-0.07,1.36,1.56,2.08,2.52,1.12c14.75-14.65,27.44-56.51,27.44-56.51c0.75,11.08,1.49,22.16,2.24,33.25
			c0.27,4.05,4.58,20.64,5.33,23.5c0.04,0.16,0.25,0.19,0.33,0.04c2.42-4.21,24.28-42.34,30.35-55.19
			c0.99,13.18,3.51,33.36,5.26,46.69c1.06,8.03,7.49,14.27,15.53,15.02c21.54,2.02,80.64,2,80.64,2"/>
		<g>
			<rect x="1204.24" y="1069.39" class="st16" width="61.65" height="62.75"/>
			<g>
				<rect x="1201.18" y="1051.03" class="st16" width="82.57" height="105.09"/>
				<text transform="matrix(1 0 0 1 1204.4563 1142.7323)" class="st17 st18 st19">S</text>
			</g>
			<path class="st20" d="M1233.3,1151.68V1045.5c0-0.83,0.67-1.5,1.5-1.5h1.24c0.83,0,1.5,0.67,1.5,1.5v106.18
				c0,0.83-0.67,1.5-1.5,1.5h-1.24C1233.97,1153.18,1233.3,1152.51,1233.3,1151.68z"/>
			<path class="st20" d="M1250.96,1151.68V1045.5c0-0.83,0.67-1.5,1.5-1.5h1.24c0.83,0,1.5,0.67,1.5,1.5v106.18
				c0,0.83-0.67,1.5-1.5,1.5h-1.24C1251.63,1153.18,1250.96,1152.51,1250.96,1151.68z"/>
		</g>
	</g>
</g>
<g id="Layer_17">
</g>
<g id="Layer_16">
</g>
<g id="Layer_15">
</g>
<g id="Layer_14">
</g>
<g id="Layer_13">
</g>
<g id="Layer_12">
</g>
<g id="Layer_11">
</g>
<g id="Layer_10">
</g>
<g id="Layer_9">
</g>
<g id="Layer_8">
</g>
<g id="Layer_7">
</g>
<g id="Layer_6">
</g>
<g id="Layer_5">
</g>
<g id="Layer_4">
</g>
<g id="Layer_3">
</g>
<g id="Layer_2">
</g>
</svg>
