<?xml version="1.0" encoding="utf-8"?>
<!-- Generator: Adobe Adobe Illustrator 24.2.0, SVG Export Plug-In . SVG Version: 6.00 Build 0)  -->
<svg version="1.1" xmlns="http://www.w3.org/2000/svg" xmlns:xlink="http://www.w3.org/1999/xlink" x="0px" y="0px"
	 viewBox="0 0 1920 1920" style="enable-background:new 0 0 1920 1920;" xml:space="preserve">
<style type="text/css">
	.st0{fill:#F66550;}
	.st1{fill:#FFFFFF;}
	.st2{fill:#3E3E40;}
	.st3{fill:#B54A3A;}
	.st4{fill:#C4C4C4;}
	.st5{fill:#78B8D8;}
	.st6{fill:#5F93A6;}
	.st7{fill:#808080;}
	.st8{fill:#595858;}
	.st9{fill:#F46450;}
	.st10{fill:#74B7D0;}
	.st11{fill:#5E93A6;}
	.st12{fill:#FDFDFC;}
	.st13{fill:#3E3E40;stroke:#3E3E40;stroke-miterlimit:10;}
	.st14{fill:none;stroke:#3E3E40;stroke-width:22.6193;stroke-linecap:round;stroke-linejoin:round;stroke-miterlimit:10;}
	.st15{fill:none;stroke:#3E3E40;stroke-width:30.2039;stroke-miterlimit:10;}
	.st16{fill:#3E3E40;stroke:#3F3F40;stroke-width:6.715;stroke-linecap:round;stroke-linejoin:round;stroke-miterlimit:10;}
	.st17{fill:#5D93A6;}
	.st18{fill:#72B6CC;}
	.st19{fill:#6FB5CA;}
	.st20{fill:#595959;}
</style>
<g id="Layer_1">
</g>
<g id="Layer_20">
</g>
<g id="Layer_19">
</g>
<g id="Layer_18">
</g>
<g id="Layer_17">
</g>
<g id="Layer_16">
</g>
<g id="Layer_15">
</g>
<g id="Layer_14">
</g>
<g id="Layer_13">
</g>
<g id="Layer_12">
</g>
<g id="Layer_11">
</g>
<g id="Layer_10">
</g>
<g id="Layer_9">
</g>
<g id="Layer_8">
</g>
<g id="Layer_7">
</g>
<g id="Layer_6">
</g>
<g id="Layer_5">
</g>
<g id="Layer_4">
	<g>
		<path class="st10" d="M262.78,1730.79V398.84c0-83.64,67.81-151.45,151.45-151.45h1091.53c83.64,0,151.45,67.81,151.45,151.45
			v1331.95c0,83.64-67.81,151.45-151.45,151.45H414.24C330.59,1882.24,262.78,1814.44,262.78,1730.79z"/>
		<path class="st11" d="M425.2,1642.35V605.65C425.2,522,493,454.2,576.65,454.2h839.7c83.64,0,151.45,67.81,151.45,151.45v1036.7
			c0,83.64-67.81,151.45-151.45,151.45h-839.7C493,1793.8,425.2,1726,425.2,1642.35z"/>
		<path class="st12" d="M388.7,1598.27V561.57c0-83.64,67.81-151.45,151.45-151.45h839.7c83.64,0,151.45,67.81,151.45,151.45v1036.7
			c0,83.64-67.81,151.45-151.45,151.45h-839.7C456.51,1749.72,388.7,1681.91,388.7,1598.27z"/>
		<path class="st2" d="M570,345.9V234.5c0-52.08,42.22-94.3,94.3-94.3h591.4c52.08,0,94.3,42.22,94.3,94.3v111.4
			c0,52.08-42.22,94.3-94.3,94.3H664.3C612.22,440.2,570,397.98,570,345.9z"/>
		<path class="st2" d="M570,650.2L570,650.2c0-16.57,13.43-30,30-30h720c16.57,0,30,13.43,30,30l0,0c0,16.57-13.43,30-30,30H600
			C583.43,680.2,570,666.77,570,650.2z"/>
		<path class="st2" d="M570,840.2L570,840.2c0-16.57,13.43-30,30-30h480c16.57,0,30,13.43,30,30l0,0c0,16.57-13.43,30-30,30H600
			C583.43,870.2,570,856.77,570,840.2z"/>
		<path class="st2" d="M960,1030.2L960,1030.2c0-16.57,13.43-30,30-30h330c16.57,0,30,13.43,30,30l0,0c0,16.57-13.43,30-30,30H990
			C973.43,1060.2,960,1046.77,960,1030.2z"/>
		<path class="st2" d="M1155,840.2L1155,840.2c0-16.57,13.43-30,30-30h112.5c16.57,0,30,13.43,30,30l0,0c0,16.57-13.43,30-30,30
			H1185C1168.43,870.2,1155,856.77,1155,840.2z"/>
		<path class="st2" d="M1110,1220.2L1110,1220.2c0-16.57,13.43-30,30-30h180c16.57,0,30,13.43,30,30l0,0c0,16.57-13.43,30-30,30
			h-180C1123.43,1250.2,1110,1236.77,1110,1220.2z"/>
		<path class="st2" d="M570,1220.2L570,1220.2c0-16.57,13.43-30,30-30h370c16.57,0,30,13.43,30,30l0,0c0,16.57-13.43,30-30,30H600
			C583.43,1250.2,570,1236.77,570,1220.2z"/>
		<path class="st2" d="M570,1030.2L570,1030.2c0-16.57,13.43-30,30-30h230c16.57,0,30,13.43,30,30l0,0c0,16.57-13.43,30-30,30H600
			C583.43,1060.2,570,1046.77,570,1030.2z"/>
	</g>
</g>
<g id="Layer_3">
</g>
<g id="Layer_2">
</g>
</svg>
