<?xml version="1.0" encoding="utf-8"?>
<!-- Generator: Adobe Adobe Illustrator 24.2.0, SVG Export Plug-In . SVG Version: 6.00 Build 0)  -->
<svg version="1.1" xmlns="http://www.w3.org/2000/svg" xmlns:xlink="http://www.w3.org/1999/xlink" x="0px" y="0px"
	 viewBox="0 0 1920 1920" style="enable-background:new 0 0 1920 1920;" xml:space="preserve">
<style type="text/css">
	.st0{fill:#F66550;}
	.st1{fill:#FFFFFF;}
	.st2{fill:#3E3E40;}
	.st3{fill:#B54A3A;}
	.st4{fill:#C4C4C4;}
	.st5{fill:#78B8D8;}
	.st6{fill:#5F93A6;}
	.st7{fill:#808080;}
	.st8{fill:#595858;}
	.st9{fill:#F46450;}
	.st10{fill:#74B7D0;}
	.st11{fill:#5E93A6;}
	.st12{fill:#FDFDFC;}
	.st13{fill:#3E3E40;stroke:#3E3E40;stroke-miterlimit:10;}
	.st14{fill:none;stroke:#3E3E40;stroke-width:22.6193;stroke-linecap:round;stroke-linejoin:round;stroke-miterlimit:10;}
	.st15{fill:none;stroke:#3E3E40;stroke-width:30.2039;stroke-miterlimit:10;}
	.st16{fill:#3E3E40;stroke:#3F3F40;stroke-width:6.715;stroke-linecap:round;stroke-linejoin:round;stroke-miterlimit:10;}
	.st17{fill:#5D93A6;}
	.st18{fill:#72B6CC;}
	.st19{fill:#6FB5CA;}
	.st20{fill:#595959;}
</style>
<g id="Layer_1">
</g>
<g id="Layer_20">
</g>
<g id="Layer_19">
</g>
<g id="Layer_18">
</g>
<g id="Layer_17">
</g>
<g id="Layer_16">
</g>
<g id="Layer_15">
	<g>
		<circle class="st10" cx="960" cy="960" r="750"/>
		<path class="st17" d="M812.64,1328.97V491.03c0-65.29,52.93-118.22,118.22-118.22h399.56c65.29,0,118.22,52.93,118.22,118.22
			v837.94c0,65.29-52.93,118.22-118.22,118.22H930.86C865.57,1447.19,812.64,1394.26,812.64,1328.97z"/>
		<path class="st17" d="M708.85,1427.69V589.75c0-65.29,52.93-118.22,118.22-118.22h399.56c65.29,0,118.22,52.93,118.22,118.22
			v837.94c0,65.29-52.93,118.22-118.22,118.22H827.07C761.78,1545.91,708.85,1492.98,708.85,1427.69z"/>
		<path class="st2" d="M757.01,1283.5V445.56c0-65.29,52.93-118.22,118.22-118.22h399.56c65.29,0,118.22,52.93,118.22,118.22v837.94
			c0,65.29-52.93,118.22-118.22,118.22H875.23C809.94,1401.72,757.01,1348.79,757.01,1283.5z"/>
		<path class="st17" d="M608.9,1519.91V681.97c0-65.29,52.93-118.22,118.22-118.22h399.56c65.29,0,118.22,52.93,118.22,118.22
			v837.94c0,65.29-52.93,118.22-118.22,118.22H727.12C661.83,1638.13,608.9,1585.2,608.9,1519.91z"/>
		<path class="st1" d="M653.23,1382.22V544.28c0-65.29,52.93-118.22,118.22-118.22h399.56c65.29,0,118.22,52.93,118.22,118.22
			v837.94c0,65.29-52.93,118.22-118.22,118.22H771.44C706.15,1500.44,653.23,1447.51,653.23,1382.22z"/>
		<path class="st2" d="M852.27,616.59L852.27,616.59c0-13.81,11.19-25,25-25h342c13.81,0,25,11.19,25,25v0c0,13.81-11.19,25-25,25
			h-342C863.47,641.59,852.27,630.39,852.27,616.59z"/>
		<path class="st2" d="M852.27,700.59L852.27,700.59c0-13.81,11.19-25,25-25h303c13.81,0,25,11.19,25,25v0c0,13.81-11.19,25-25,25
			h-303C863.47,725.59,852.27,714.39,852.27,700.59z"/>
		<path class="st2" d="M852.27,784.59L852.27,784.59c0-13.81,11.19-25,25-25h333c13.81,0,25,11.19,25,25v0c0,13.81-11.19,25-25,25
			h-333C863.47,809.59,852.27,798.39,852.27,784.59z"/>
		<path class="st2" d="M852.27,868.59L852.27,868.59c0-13.81,11.19-25,25-25h287c13.81,0,25,11.19,25,25v0c0,13.81-11.19,25-25,25
			h-287C863.47,893.59,852.27,882.39,852.27,868.59z"/>
		<path class="st2" d="M852.27,949.53L852.27,949.53c0-13.81,11.19-25,25-25h357c13.81,0,25,11.19,25,25v0c0,13.81-11.19,25-25,25
			h-357C863.47,974.53,852.27,963.34,852.27,949.53z"/>
		<path class="st2" d="M852.27,1030.47L852.27,1030.47c0-13.81,11.19-25,25-25h303c13.81,0,25,11.19,25,25l0,0
			c0,13.81-11.19,25-25,25h-303C863.47,1055.47,852.27,1044.28,852.27,1030.47z"/>
		<path class="st2" d="M852.27,1114.47L852.27,1114.47c0-13.81,11.19-25,25-25h333c13.81,0,25,11.19,25,25l0,0
			c0,13.81-11.19,25-25,25h-333C863.47,1139.47,852.27,1128.28,852.27,1114.47z"/>
		<path class="st2" d="M852.27,1198.47L852.27,1198.47c0-13.81,11.19-25,25-25h287c13.81,0,25,11.19,25,25l0,0
			c0,13.81-11.19,25-25,25h-287C863.47,1223.47,852.27,1212.28,852.27,1198.47z"/>
		<path class="st2" d="M553.27,1474.44V636.5c0-65.29,52.93-118.22,118.22-118.22h399.56c65.29,0,118.22,52.93,118.22,118.22v837.94
			c0,65.29-52.93,118.22-118.22,118.22H671.49C606.2,1592.66,553.27,1539.73,553.27,1474.44z"/>
		<path class="st2" d="M852.27,1279.41L852.27,1279.41c0-13.81,11.19-25,25-25h357c13.81,0,25,11.19,25,25l0,0
			c0,13.81-11.19,25-25,25h-357C863.47,1304.41,852.27,1293.22,852.27,1279.41z"/>
	</g>
</g>
<g id="Layer_14">
</g>
<g id="Layer_13">
</g>
<g id="Layer_12">
</g>
<g id="Layer_11">
</g>
<g id="Layer_10">
</g>
<g id="Layer_9">
</g>
<g id="Layer_8">
</g>
<g id="Layer_7">
</g>
<g id="Layer_6">
</g>
<g id="Layer_5">
</g>
<g id="Layer_4">
</g>
<g id="Layer_3">
</g>
<g id="Layer_2">
</g>
</svg>
