<?xml version="1.0" encoding="utf-8"?>
<!-- Generator: Adobe Adobe Illustrator 24.2.0, SVG Export Plug-In . SVG Version: 6.00 Build 0)  -->
<svg version="1.1" xmlns="http://www.w3.org/2000/svg" xmlns:xlink="http://www.w3.org/1999/xlink" x="0px" y="0px"
	 viewBox="0 0 1920 1920" style="enable-background:new 0 0 1920 1920;" xml:space="preserve">
<style type="text/css">
	.st0{fill:#F66550;}
	.st1{fill:#FFFFFF;}
	.st2{fill:#3E3E40;}
	.st3{fill:#B54A3A;}
	.st4{fill:#C4C4C4;}
	.st5{fill:#78B8D8;}
	.st6{fill:#5F93A6;}
	.st7{fill:#808080;}
	.st8{fill:#595858;}
	.st9{fill:#F46450;}
	.st10{fill:#74B7D0;}
	.st11{fill:#5E93A6;}
	.st12{fill:#FDFDFC;}
	.st13{fill:#3E3E40;stroke:#3E3E40;stroke-miterlimit:10;}
	.st14{fill:none;stroke:#3E3E40;stroke-width:22.6193;stroke-linecap:round;stroke-linejoin:round;stroke-miterlimit:10;}
	.st15{fill:none;stroke:#3E3E40;stroke-width:30.2039;stroke-miterlimit:10;}
	.st16{fill:#3E3E40;stroke:#3F3F40;stroke-width:6.715;stroke-linecap:round;stroke-linejoin:round;stroke-miterlimit:10;}
	.st17{fill:#5D93A6;}
	.st18{fill:#72B6CC;}
	.st19{fill:#6FB5CA;}
	.st20{fill:#595959;}
</style>
<g id="Layer_1">
	<g>
		<path class="st0" d="M276.95,1730.79V398.84c0-83.64,67.81-151.45,151.45-151.45h1091.53c83.64,0,151.45,67.81,151.45,151.45
			v1331.95c0,83.64-67.81,151.45-151.45,151.45H428.4C344.76,1882.24,276.95,1814.44,276.95,1730.79z"/>
		<path class="st1" d="M524.34,1685.06V474.77c0-27.61,22.39-50,50-50h20.21c27.61,0,50,22.39,50,50v1210.29c0,27.61-22.39,50-50,50
			h-20.21C546.73,1735.06,524.34,1712.67,524.34,1685.06z"/>
		<path class="st1" d="M914.06,1685.06V474.77c0-27.61,22.39-50,50-50h20.21c27.61,0,50,22.39,50,50v1210.29c0,27.61-22.39,50-50,50
			h-20.21C936.45,1735.06,914.06,1712.67,914.06,1685.06z"/>
		<path class="st1" d="M1274.69,1685.06V474.77c0-27.61,22.39-50,50-50h20.21c27.61,0,50,22.39,50,50v1210.29
			c0,27.61-22.39,50-50,50h-20.21C1297.08,1735.06,1274.69,1712.67,1274.69,1685.06z"/>
		<g>
			<g>
				<path class="st2" d="M1671.34,157.97h-510.85v-20.21c0-55.23-44.77-100-100-100H887.84c-55.23,0-100,44.77-100,100v20.21H248.66
					c-81.83,0-148.16,66.33-148.16,148.16v88.35c0,81.83,66.33,148.16,148.16,148.16h1422.68c81.83,0,148.16-66.33,148.16-148.16
					v-88.35C1819.5,224.3,1753.17,157.97,1671.34,157.97z"/>
			</g>
		</g>
		<rect x="644.55" y="542.64" class="st3" width="269.51" height="110"/>
		<rect x="276.95" y="542.64" class="st3" width="247.39" height="110"/>
		<rect x="524.34" y="542.64" class="st4" width="120.21" height="110"/>
		<rect x="1034.27" y="542.64" class="st3" width="240.42" height="110"/>
		<rect x="1394.9" y="542.64" class="st3" width="276.48" height="110"/>
		<rect x="1274.69" y="542.64" class="st4" width="120.21" height="110"/>
		<rect x="914.06" y="542.64" class="st4" width="120.21" height="110"/>
	</g>
</g>
<g id="Layer_20">
</g>
<g id="Layer_19">
</g>
<g id="Layer_18">
</g>
<g id="Layer_17">
</g>
<g id="Layer_16">
</g>
<g id="Layer_15">
</g>
<g id="Layer_14">
</g>
<g id="Layer_13">
</g>
<g id="Layer_12">
</g>
<g id="Layer_11">
</g>
<g id="Layer_10">
</g>
<g id="Layer_9">
</g>
<g id="Layer_8">
</g>
<g id="Layer_7">
</g>
<g id="Layer_6">
</g>
<g id="Layer_5">
</g>
<g id="Layer_4">
</g>
<g id="Layer_3">
</g>
<g id="Layer_2">
</g>
</svg>
