<?xml version="1.0" encoding="utf-8"?>
<!-- Generator: Adobe Adobe Illustrator 24.2.0, SVG Export Plug-In . SVG Version: 6.00 Build 0)  -->
<svg version="1.1" xmlns="http://www.w3.org/2000/svg" xmlns:xlink="http://www.w3.org/1999/xlink" x="0px" y="0px"
	 viewBox="0 0 1920 1920" style="enable-background:new 0 0 1920 1920;" xml:space="preserve">
<style type="text/css">
	.st0{fill:#F66550;}
	.st1{fill:#FFFFFF;}
	.st2{fill:#3E3E40;}
	.st3{fill:#B54A3A;}
	.st4{fill:#C4C4C4;}
	.st5{fill:#78B8D8;}
	.st6{fill:#5F93A6;}
	.st7{fill:#808080;}
	.st8{fill:#595858;}
	.st9{fill:#F46450;}
	.st10{fill:#74B7D0;}
	.st11{fill:#5E93A6;}
	.st12{fill:#FDFDFC;}
	.st13{fill:#3E3E40;stroke:#3E3E40;stroke-miterlimit:10;}
	.st14{fill:none;stroke:#3E3E40;stroke-width:22.6193;stroke-linecap:round;stroke-linejoin:round;stroke-miterlimit:10;}
	.st15{fill:none;stroke:#3E3E40;stroke-width:30.2039;stroke-miterlimit:10;}
	.st16{fill:#3E3E40;stroke:#3F3F40;stroke-width:6.715;stroke-linecap:round;stroke-linejoin:round;stroke-miterlimit:10;}
	.st17{fill:#5D93A6;}
	.st18{fill:#72B6CC;}
	.st19{fill:#6FB5CA;}
	.st20{fill:#595959;}
</style>
<g id="Layer_1">
</g>
<g id="Layer_20">
</g>
<g id="Layer_19">
</g>
<g id="Layer_18">
</g>
<g id="Layer_17">
</g>
<g id="Layer_16">
</g>
<g id="Layer_15">
</g>
<g id="Layer_14">
</g>
<g id="Layer_13">
</g>
<g id="Layer_12">
</g>
<g id="Layer_11">
</g>
<g id="Layer_10">
</g>
<g id="Layer_9">
</g>
<g id="Layer_8">
</g>
<g id="Layer_7">
	<g>
		<circle class="st5" cx="965.83" cy="976.13" r="686.11"/>
		<path class="st17" d="M1198.55,1621.75l210.8-283.07c26.12-43.05-4.87-98.12-55.23-98.12H697.75c-50.36,0-81.35,55.06-55.23,98.12
			l289.19,272.86C956.86,1653,1014.92,1687.74,1198.55,1621.75z"/>
		<path class="st11" d="M1086.51,1240.57c0,0-234.65-939.91,0.33-939.91c46.44,0,137.71,39.82,137.71,39.82l-8.04,900.09H1086.51z"
			/>
		<path class="st2" d="M780.83,1220.14v-910c0-102.17,82.83-185,185-185h0c102.17,0,185,82.83,185,185v910
			c0,102.17-82.83,185-185,185h0C863.66,1405.14,780.83,1322.31,780.83,1220.14z"/>
		<path class="st2" d="M1021.06,1796.04l328.19-540.86c26.12-43.05-4.87-98.12-55.23-98.12H637.64c-50.36,0-81.35,55.06-55.23,98.12
			l328.19,540.86C935.75,1837.49,995.91,1837.49,1021.06,1796.04z"/>
	</g>
</g>
<g id="Layer_6">
</g>
<g id="Layer_5">
</g>
<g id="Layer_4">
</g>
<g id="Layer_3">
</g>
<g id="Layer_2">
</g>
</svg>
