<?xml version="1.0" encoding="utf-8"?>
<!-- Generator: Adobe Adobe Illustrator 24.2.0, SVG Export Plug-In . SVG Version: 6.00 Build 0)  -->
<svg version="1.1" xmlns="http://www.w3.org/2000/svg" xmlns:xlink="http://www.w3.org/1999/xlink" x="0px" y="0px"
	 viewBox="0 0 1920 1920" style="enable-background:new 0 0 1920 1920;" xml:space="preserve">
<style type="text/css">
	.st0{fill:#F66550;}
	.st1{fill:#FFFFFF;}
	.st2{fill:#3E3E40;}
	.st3{fill:#B54A3A;}
	.st4{fill:#C4C4C4;}
	.st5{fill:#78B8D8;}
	.st6{fill:#5F93A6;}
	.st7{fill:#808080;}
	.st8{fill:#595858;}
	.st9{fill:#F46450;}
	.st10{fill:#74B7D0;}
	.st11{fill:#5E93A6;}
	.st12{fill:#FDFDFC;}
	.st13{fill:#3E3E40;stroke:#3E3E40;stroke-miterlimit:10;}
	.st14{fill:none;stroke:#3E3E40;stroke-width:22.6193;stroke-linecap:round;stroke-linejoin:round;stroke-miterlimit:10;}
	.st15{fill:none;stroke:#3E3E40;stroke-width:30.2039;stroke-miterlimit:10;}
	.st16{fill:#3E3E40;stroke:#3F3F40;stroke-width:6.715;stroke-linecap:round;stroke-linejoin:round;stroke-miterlimit:10;}
	.st17{fill:#5D93A6;}
	.st18{fill:#72B6CC;}
	.st19{fill:#6FB5CA;}
	.st20{fill:#595959;}
</style>
<g id="Layer_1">
</g>
<g id="Layer_20">
</g>
<g id="Layer_19">
</g>
<g id="Layer_18">
</g>
<g id="Layer_17">
</g>
<g id="Layer_16">
</g>
<g id="Layer_15">
</g>
<g id="Layer_14">
</g>
<g id="Layer_13">
	<g>
		<g>
			<circle class="st18" cx="960" cy="1023.21" r="686.11"/>
		</g>
		<path class="st17" d="M835.04,1515.93v-960c0-27.61,22.39-50,50-50h250c27.61,0,50,22.39,50,50v960c0,27.61-22.39,50-50,50h-250
			C857.43,1565.93,835.04,1543.54,835.04,1515.93z"/>
		<path class="st17" d="M835.04,399.67v-46.14c0-50.77,219.48-23.15,350,21.36l0,24.78c0,50.77-41.16,91.93-91.93,91.93H926.97
			C876.2,491.61,835.04,450.45,835.04,399.67z"/>
		<path class="st2" d="M785.04,1435.93v-960c0-27.61,22.39-50,50-50h250c27.61,0,50,22.39,50,50v960c0,27.61-22.39,50-50,50h-250
			C807.43,1485.93,785.04,1463.54,785.04,1435.93z"/>
		<path class="st2" d="M785.04,319.67v-46.14c0-50.77,41.16-91.93,91.93-91.93h166.14c50.77,0,91.93,41.16,91.93,91.93v46.14
			c0,50.77-41.16,91.93-91.93,91.93H876.97C826.2,411.61,785.04,370.45,785.04,319.67z"/>
		<path class="st17" d="M1152.69,1583.47H867.31c-23.86,0-39.53,24.93-29.19,46.43l31.08,64.59c12.25,0.93,24.86,2.13,35.13,8.56
			c0.17,0.1,0.31,0.22,0.45,0.34c3.47,0.8,6.94,1.62,10.41,2.47c10.89-1.13,22-0.99,32.85-1.53c19.48-0.98,38.94-3.65,58.39-0.8
			c1.19,0.17,2.07,0.79,2.67,1.63c2.57-0.07,5.14-0.09,7.72-0.02c4.37,0.12,8.61,0.7,12.91,1.33c7.95-1.15,15.9-2.29,23.88-3.21
			c8.72-1.01,36.88-6.38,37.08-6.43c7.21-1.76,21.76-4.66,29-6.25c9.7-2.13,26.22-6.12,38.36-10.32l23.84-50.35
			C1192.22,1608.4,1176.55,1583.47,1152.69,1583.47z"/>
		<path class="st2" d="M930.81,1846.47l-142.69-296.56c-10.35-21.5,5.32-46.43,29.19-46.43h285.38c23.86,0,39.53,24.93,29.19,46.43
			l-142.69,296.56C977.42,1870.93,942.58,1870.93,930.81,1846.47z"/>
	</g>
</g>
<g id="Layer_12">
</g>
<g id="Layer_11">
</g>
<g id="Layer_10">
</g>
<g id="Layer_9">
</g>
<g id="Layer_8">
</g>
<g id="Layer_7">
</g>
<g id="Layer_6">
</g>
<g id="Layer_5">
</g>
<g id="Layer_4">
</g>
<g id="Layer_3">
</g>
<g id="Layer_2">
</g>
</svg>
