<?xml version="1.0" encoding="utf-8"?>
<!-- Generator: Adobe Adobe Illustrator 24.2.0, SVG Export Plug-In . SVG Version: 6.00 Build 0)  -->
<svg version="1.1" xmlns="http://www.w3.org/2000/svg" xmlns:xlink="http://www.w3.org/1999/xlink" x="0px" y="0px"
	 viewBox="0 0 1920 1920" style="enable-background:new 0 0 1920 1920;" xml:space="preserve">
<style type="text/css">
	.st0{fill:#F66550;}
	.st1{fill:#FFFFFF;}
	.st2{fill:#3E3E40;}
	.st3{fill:#B54A3A;}
	.st4{fill:#C4C4C4;}
	.st5{fill:#78B8D8;}
	.st6{fill:#5F93A6;}
	.st7{fill:#808080;}
	.st8{fill:#595858;}
	.st9{fill:#F46450;}
	.st10{fill:#74B7D0;}
	.st11{fill:#5E93A6;}
	.st12{fill:#FDFDFC;}
	.st13{fill:#3E3E40;stroke:#3E3E40;stroke-miterlimit:10;}
	.st14{fill:none;stroke:#3E3E40;stroke-width:22.6193;stroke-linecap:round;stroke-linejoin:round;stroke-miterlimit:10;}
	.st15{fill:none;stroke:#3E3E40;stroke-width:30.2039;stroke-miterlimit:10;}
	.st16{fill:#3E3E40;stroke:#3F3F40;stroke-width:6.715;stroke-linecap:round;stroke-linejoin:round;stroke-miterlimit:10;}
	.st17{fill:#5D93A6;}
	.st18{fill:#72B6CC;}
	.st19{fill:#6FB5CA;}
	.st20{fill:#595959;}
</style>
<g id="Layer_1">
</g>
<g id="Layer_20">
</g>
<g id="Layer_19">
</g>
<g id="Layer_18">
</g>
<g id="Layer_17">
</g>
<g id="Layer_16">
	<g>
		<circle class="st10" cx="960" cy="960" r="750"/>
		<g>
			<path class="st17" d="M1078.33,1795.85v-634.12c0-86.09,69.79-155.88,155.88-155.88h218.24c86.09,0,155.88,69.79,155.88,155.88
				l-2.92,180.53C1492.14,1575.17,1078.33,1795.85,1078.33,1795.85z"/>
			<path class="st17" d="M503.33,1639.97V771.73c0-86.09,69.79-155.88,155.88-155.88h218.24c86.09,0,155.88,69.79,155.88,155.88
				v868.24c0,86.09-69.79,155.88-155.88,155.88H659.2C573.12,1795.85,503.33,1726.06,503.33,1639.97z"/>
			<path class="st17" d="M768.33,1795.85V501.73c0-86.09,69.79-155.88,155.88-155.88h218.24c86.09,0,155.88,69.79,155.88,155.88
				v1294.12H768.33z"/>
		</g>
		<path class="st2" d="M1001.35,1824.05v-634.12c0-86.09,69.79-155.88,155.88-155.88h218.24c86.09,0,155.88,69.79,155.88,155.88
			v519.46c0,63.33-51.34,114.66-114.66,114.66H1001.35z"/>
		<path class="st2" d="M426.35,1668.17V799.93c0-86.09,69.79-155.88,155.88-155.88h218.24c86.09,0,155.88,69.79,155.88,155.88
			v868.24c0,86.09-69.79,155.88-155.88,155.88H582.23C496.14,1824.05,426.35,1754.26,426.35,1668.17z"/>
		<path class="st1" d="M1307.83,1186.45L1307.83,1186.45c0-22.09,17.91-40,40-40h88c22.09,0,40,17.91,40,40v0
			c0,22.09-17.91,40-40,40h-88C1325.73,1226.45,1307.83,1208.54,1307.83,1186.45z"/>
		<path class="st1" d="M1116.17,1186.45L1116.17,1186.45c0-22.09,17.91-40,40-40h88c22.09,0,40,17.91,40,40v0
			c0,22.09-17.91,40-40,40h-88C1134.08,1226.45,1116.17,1208.54,1116.17,1186.45z"/>
		<path class="st1" d="M1307.83,1417.65L1307.83,1417.65c0-22.09,17.91-40,40-40h88c22.09,0,40,17.91,40,40v0
			c0,22.09-17.91,40-40,40h-88C1325.73,1457.65,1307.83,1439.74,1307.83,1417.65z"/>
		<path class="st1" d="M1116.17,1417.65L1116.17,1417.65c0-22.09,17.91-40,40-40h88c22.09,0,40,17.91,40,40v0
			c0,22.09-17.91,40-40,40h-88C1134.08,1457.65,1116.17,1439.74,1116.17,1417.65z"/>
		<path class="st2" d="M691.35,1824.05V529.93c0-86.09,69.79-155.88,155.88-155.88h218.24c86.09,0,155.88,69.79,155.88,155.88
			v1294.12H691.35z"/>
		<path class="st1" d="M971.83,568.45L971.83,568.45c0-22.09,17.91-40,40-40h88c22.09,0,40,17.91,40,40v0c0,22.09-17.91,40-40,40
			h-88C989.73,608.45,971.83,590.54,971.83,568.45z"/>
		<path class="st1" d="M780.17,568.45L780.17,568.45c0-22.09,17.91-40,40-40h88c22.09,0,40,17.91,40,40v0c0,22.09-17.91,40-40,40
			h-88C798.08,608.45,780.17,590.54,780.17,568.45z"/>
		<path class="st1" d="M971.83,799.65L971.83,799.65c0-22.09,17.91-40,40-40h88c22.09,0,40,17.91,40,40v0c0,22.09-17.91,40-40,40
			h-88C989.73,839.65,971.83,821.74,971.83,799.65z"/>
		<path class="st1" d="M780.17,799.65L780.17,799.65c0-22.09,17.91-40,40-40h88c22.09,0,40,17.91,40,40v0c0,22.09-17.91,40-40,40
			h-88C798.08,839.65,780.17,821.74,780.17,799.65z"/>
		<path class="st1" d="M971.83,1030.85L971.83,1030.85c0-22.09,17.91-40,40-40h88c22.09,0,40,17.91,40,40v0c0,22.09-17.91,40-40,40
			h-88C989.73,1070.85,971.83,1052.94,971.83,1030.85z"/>
		<path class="st1" d="M780.17,1030.85L780.17,1030.85c0-22.09,17.91-40,40-40h88c22.09,0,40,17.91,40,40v0c0,22.09-17.91,40-40,40
			h-88C798.08,1070.85,780.17,1052.94,780.17,1030.85z"/>
		<path class="st1" d="M971.83,1262.05L971.83,1262.05c0-22.09,17.91-40,40-40h88c22.09,0,40,17.91,40,40v0c0,22.09-17.91,40-40,40
			h-88C989.73,1302.05,971.83,1284.14,971.83,1262.05z"/>
		<path class="st1" d="M780.17,1262.05L780.17,1262.05c0-22.09,17.91-40,40-40h88c22.09,0,40,17.91,40,40v0c0,22.09-17.91,40-40,40
			h-88C798.08,1302.05,780.17,1284.14,780.17,1262.05z"/>
		<path class="st1" d="M971.83,1493.25L971.83,1493.25c0-22.09,17.91-40,40-40h88c22.09,0,40,17.91,40,40v0c0,22.09-17.91,40-40,40
			h-88C989.73,1533.25,971.83,1515.34,971.83,1493.25z"/>
		<path class="st1" d="M780.17,1493.25L780.17,1493.25c0-22.09,17.91-40,40-40h88c22.09,0,40,17.91,40,40v0c0,22.09-17.91,40-40,40
			h-88C798.08,1533.25,780.17,1515.34,780.17,1493.25z"/>
		<path class="st1" d="M511.52,781.85L511.52,781.85c0-22.09,17.91-40,40-40h88c22.09,0,40,17.91,40,40v0c0,22.09-17.91,40-40,40
			h-88C529.43,821.85,511.52,803.94,511.52,781.85z"/>
		<path class="st1" d="M511.52,1013.05L511.52,1013.05c0-22.09,17.91-40,40-40h88c22.09,0,40,17.91,40,40v0c0,22.09-17.91,40-40,40
			h-88C529.43,1053.05,511.52,1035.14,511.52,1013.05z"/>
		<path class="st1" d="M511.52,1244.25L511.52,1244.25c0-22.09,17.91-40,40-40h88c22.09,0,40,17.91,40,40v0c0,22.09-17.91,40-40,40
			h-88C529.43,1284.25,511.52,1266.34,511.52,1244.25z"/>
		<path class="st1" d="M511.52,1475.45L511.52,1475.45c0-22.09,17.91-40,40-40h88c22.09,0,40,17.91,40,40v0c0,22.09-17.91,40-40,40
			h-88C529.43,1515.45,511.52,1497.54,511.52,1475.45z"/>
	</g>
</g>
<g id="Layer_15">
</g>
<g id="Layer_14">
</g>
<g id="Layer_13">
</g>
<g id="Layer_12">
</g>
<g id="Layer_11">
</g>
<g id="Layer_10">
</g>
<g id="Layer_9">
</g>
<g id="Layer_8">
</g>
<g id="Layer_7">
</g>
<g id="Layer_6">
</g>
<g id="Layer_5">
</g>
<g id="Layer_4">
</g>
<g id="Layer_3">
</g>
<g id="Layer_2">
</g>
</svg>
