<?xml version="1.0" encoding="utf-8"?>
<!-- Generator: Adobe Adobe Illustrator 24.2.0, SVG Export Plug-In . SVG Version: 6.00 Build 0)  -->
<svg version="1.1" xmlns="http://www.w3.org/2000/svg" xmlns:xlink="http://www.w3.org/1999/xlink" x="0px" y="0px"
	 viewBox="0 0 1920 1920" style="enable-background:new 0 0 1920 1920;" xml:space="preserve">
<style type="text/css">
	.st0{fill:#F66550;}
	.st1{fill:#FFFFFF;}
	.st2{fill:#3E3E40;}
	.st3{fill:#B54A3A;}
	.st4{fill:#C4C4C4;}
	.st5{fill:#78B8D8;}
	.st6{fill:#5F93A6;}
	.st7{fill:#78C570;}
	.st8{fill:#64AB62;}
	.st9{fill:#808080;}
	.st10{fill:#595858;}
	.st11{fill:#F46450;}
	.st12{fill:#74B7D0;}
	.st13{fill:#5E93A6;}
	.st14{fill:#FDFDFC;}
	.st15{fill:#3E3E40;stroke:#3E3E40;stroke-miterlimit:10;}
	.st16{fill:none;stroke:#3E3E40;stroke-width:22.6193;stroke-linecap:round;stroke-linejoin:round;stroke-miterlimit:10;}
	.st17{fill:none;stroke:#3E3E40;stroke-width:30.2039;stroke-miterlimit:10;}
	.st18{fill:#3E3E40;stroke:#3F3F40;stroke-width:6.715;stroke-linecap:round;stroke-linejoin:round;stroke-miterlimit:10;}
	.st19{fill:#5D93A6;}
	.st20{fill:#72B6CC;}
	.st21{fill:#6FB5CA;}
	.st22{fill:#595959;}
	.st23{fill:#78C972;}
	.st24{fill:#66AB62;}
	.st25{fill:#65AB62;}
	.st26{fill:#F9F6F5;}
	.st27{font-family:'Montserrat-Regular';}
	.st28{font-size:350px;}
</style>
<g id="Layer_1">
</g>
<g id="Layer_20">
</g>
<g id="Layer_19">
</g>
<g id="Layer_18">
</g>
<g id="Layer_17">
</g>
<g id="Layer_16">
</g>
<g id="Layer_15">
</g>
<g id="Layer_14">
</g>
<g id="Layer_13">
</g>
<g id="Layer_12">
</g>
<g id="Layer_11">
</g>
<g id="Layer_10">
</g>
<g id="Layer_9">
</g>
<g id="Layer_8">
</g>
<g id="Layer_7">
</g>
<g id="Layer_6">
</g>
<g id="Layer_5">
	<g>
		<g>
			<g>
				<path class="st23" d="M500.38,142.78c-148.68,0-269.2,120.53-269.2,269.2v1096.45c0,148.68,120.53,269.2,269.2,269.2h856.03
					c148.68,0,269.2-120.53,269.2-269.2V705.66l-591.17-562.88H500.38z"/>
			</g>
		</g>
		<g>
			<g>
				<path class="st24" d="M1625.61,705.66l-512.64-488.11v467.16c0,52.86,42.85,95.72,95.72,95.72h416.93V705.66z"/>
			</g>
		</g>
		<path class="st2" d="M1625.17,705.24L1034,142.36v467.16c0,52.86,42.85,95.72,95.72,95.72H1625.17z"/>
		<path class="st25" d="M231.18,1535.2v-406.32c0-53.41,43.29-96.7,96.7-96.7h576.6c53.41,0,96.7,43.29,96.7,96.7v406.32
			c0,53.41-43.29,96.7-96.7,96.7h-576.6C274.47,1631.91,231.18,1588.61,231.18,1535.2z"/>
		<path class="st2" d="M188.39,1471.57v-406.32c0-53.41,43.29-96.7,96.7-96.7h546.6c53.41,0,96.7,43.29,96.7,96.7v406.32
			c0,53.41-43.29,96.7-96.7,96.7h-546.6C231.69,1568.27,188.39,1524.98,188.39,1471.57z"/>
		<text transform="matrix(1 0 0 1 443.5937 1371.3146)" class="st26 st27 st28">X</text>
	</g>
	<path class="st2" d="M1000.88,1121.34L1000.88,1121.34c0-24.85,20.15-45,45-45h210c24.85,0,45,20.15,45,45v0
		c0,24.85-20.15,45-45,45h-210C1021.03,1166.34,1000.88,1146.19,1000.88,1121.34z"/>
	<path class="st2" d="M1300.88,1121.34L1300.88,1121.34c0-24.85,20.15-45,45-45h210c24.85,0,45,20.15,45,45v0
		c0,24.85-20.15,45-45,45h-210C1321.03,1166.34,1300.88,1146.19,1300.88,1121.34z"/>
	<path class="st2" d="M1000.88,1241.34L1000.88,1241.34c0-24.85,20.15-45,45-45h210c24.85,0,45,20.15,45,45v0
		c0,24.85-20.15,45-45,45h-210C1021.03,1286.34,1000.88,1266.19,1000.88,1241.34z"/>
	<path class="st2" d="M1300.88,1241.34L1300.88,1241.34c0-24.85,20.15-45,45-45h210c24.85,0,45,20.15,45,45v0
		c0,24.85-20.15,45-45,45h-210C1321.03,1286.34,1300.88,1266.19,1300.88,1241.34z"/>
	<path class="st2" d="M1000.88,1361.34L1000.88,1361.34c0-24.85,20.15-45,45-45h210c24.85,0,45,20.15,45,45v0
		c0,24.85-20.15,45-45,45h-210C1021.03,1406.34,1000.88,1386.19,1000.88,1361.34z"/>
	<path class="st2" d="M1300.88,1361.34L1300.88,1361.34c0-24.85,20.15-45,45-45h210c24.85,0,45,20.15,45,45v0
		c0,24.85-20.15,45-45,45h-210C1321.03,1406.34,1300.88,1386.19,1300.88,1361.34z"/>
	<path class="st2" d="M1000.88,1481.34L1000.88,1481.34c0-24.85,20.15-45,45-45h210c24.85,0,45,20.15,45,45v0
		c0,24.85-20.15,45-45,45h-210C1021.03,1526.34,1000.88,1506.19,1000.88,1481.34z"/>
	<path class="st2" d="M1300.88,1481.34L1300.88,1481.34c0-24.85,20.15-45,45-45h210c24.85,0,45,20.15,45,45v0
		c0,24.85-20.15,45-45,45h-210C1321.03,1526.34,1300.88,1506.19,1300.88,1481.34z"/>
</g>
<g id="Layer_4">
</g>
<g id="Layer_3">
</g>
<g id="Layer_2">
</g>
</svg>
