<?xml version="1.0" encoding="utf-8"?>
<!-- Generator: Adobe Adobe Illustrator 24.2.0, SVG Export Plug-In . SVG Version: 6.00 Build 0)  -->
<svg version="1.1" xmlns="http://www.w3.org/2000/svg" xmlns:xlink="http://www.w3.org/1999/xlink" x="0px" y="0px"
	 viewBox="0 0 1920 1920" style="enable-background:new 0 0 1920 1920;" xml:space="preserve">
<style type="text/css">
	.st0{fill:#F66550;}
	.st1{fill:#FFFFFF;}
	.st2{fill:#3E3E40;}
	.st3{fill:#B54A3A;}
	.st4{fill:#C4C4C4;}
	.st5{fill:#78B8D8;}
	.st6{fill:#5F93A6;}
	.st7{fill:#808080;}
	.st8{fill:#595858;}
	.st9{fill:#F46450;}
	.st10{fill:#74B7D0;}
	.st11{fill:#5E93A6;}
	.st12{fill:#FDFDFC;}
	.st13{fill:#3E3E40;stroke:#3E3E40;stroke-miterlimit:10;}
	.st14{fill:none;stroke:#3E3E40;stroke-width:22.6193;stroke-linecap:round;stroke-linejoin:round;stroke-miterlimit:10;}
	.st15{fill:none;stroke:#3E3E40;stroke-width:30.2039;stroke-miterlimit:10;}
	.st16{fill:#3E3E40;stroke:#3F3F40;stroke-width:6.715;stroke-linecap:round;stroke-linejoin:round;stroke-miterlimit:10;}
	.st17{fill:#5D93A6;}
	.st18{fill:#72B6CC;}
	.st19{fill:#6FB5CA;}
	.st20{fill:#595959;}
</style>
<g id="Layer_1">
</g>
<g id="Layer_20">
</g>
<g id="Layer_19">
</g>
<g id="Layer_18">
</g>
<g id="Layer_17">
</g>
<g id="Layer_16">
</g>
<g id="Layer_15">
</g>
<g id="Layer_14">
</g>
<g id="Layer_13">
</g>
<g id="Layer_12">
</g>
<g id="Layer_11">
	<g>
		<path class="st7" d="M585.43,1270.66V649.35c0-112.86,91.49-204.34,204.34-204.34h841.31c112.86,0,204.34,91.49,204.34,204.34
			v621.31c0,112.86-91.49,204.34-204.34,204.34H789.78C676.92,1475,585.43,1383.51,585.43,1270.66z"/>
		<g>
			
				<rect x="660.54" y="819.59" transform="matrix(-7.500400e-10 -1 1 -7.500400e-10 -228.942 1838.9656)" class="st8" width="288.95" height="428.73"/>
			<path class="st8" d="M1325.02,977.66L906.86,742.24c-43.06-24.24-96.3,6.87-96.3,56.29v470.84c0,49.42,53.23,80.54,96.3,56.29
				l418.16-235.42C1368.9,1065.55,1368.9,1002.36,1325.02,977.66z"/>
		</g>
		<g>
			<path class="st2" d="M859.67,1112.09H226.92c-78.62,0-142.35-63.73-142.35-142.35v-4.25c0-78.62,63.73-142.35,142.35-142.35
				h632.75c78.62,0,142.35,63.73,142.35,142.35v4.25C1002.02,1048.36,938.29,1112.09,859.67,1112.09z"/>
			<path class="st2" d="M1307.66,911.32L889.5,675.9c-43.06-24.24-96.3,6.87-96.3,56.29v470.84c0,49.42,53.23,80.54,96.3,56.29
				l418.16-235.42C1351.54,999.21,1351.54,936.02,1307.66,911.32z"/>
		</g>
		<rect x="1436.76" y="650" class="st1" width="60" height="620"/>
		<path class="st1" d="M1351.76,630.06L1351.76,630.06c0-11.05,8.95-20,20-20h190c11.05,0,20,8.95,20,20v0c0,11.05-8.95,20-20,20
			h-190C1360.71,650.06,1351.76,641.11,1351.76,630.06z"/>
		<path class="st1" d="M1351.76,1289.94L1351.76,1289.94c0-11.05,8.95-20,20-20h190c11.05,0,20,8.95,20,20l0,0
			c0,11.05-8.95,20-20,20h-190C1360.71,1309.94,1351.76,1300.98,1351.76,1289.94z"/>
	</g>
</g>
<g id="Layer_10">
</g>
<g id="Layer_9">
</g>
<g id="Layer_8">
</g>
<g id="Layer_7">
</g>
<g id="Layer_6">
</g>
<g id="Layer_5">
</g>
<g id="Layer_4">
</g>
<g id="Layer_3">
</g>
<g id="Layer_2">
</g>
</svg>
