<?xml version="1.0" encoding="utf-8"?>
<!-- Generator: Adobe Adobe Illustrator 24.2.0, SVG Export Plug-In . SVG Version: 6.00 Build 0)  -->
<svg version="1.1" xmlns="http://www.w3.org/2000/svg" xmlns:xlink="http://www.w3.org/1999/xlink" x="0px" y="0px"
	 viewBox="0 0 1920 1920" style="enable-background:new 0 0 1920 1920;" xml:space="preserve">
<style type="text/css">
	.st0{fill:#F66550;}
	.st1{fill:#FFFFFF;}
	.st2{fill:#3E3E40;}
	.st3{fill:#B54A3A;}
	.st4{fill:#C4C4C4;}
	.st5{fill:#78B8D8;}
	.st6{fill:#5F93A6;}
	.st7{fill:#808080;}
	.st8{fill:#595858;}
	.st9{fill:#F46450;}
	.st10{fill:#74B7D0;}
	.st11{fill:#5E93A6;}
	.st12{fill:#FDFDFC;}
	.st13{fill:#3E3E40;stroke:#3E3E40;stroke-miterlimit:10;}
	.st14{fill:none;stroke:#3E3E40;stroke-width:22.6193;stroke-linecap:round;stroke-linejoin:round;stroke-miterlimit:10;}
	.st15{fill:none;stroke:#3E3E40;stroke-width:30.2039;stroke-miterlimit:10;}
	.st16{fill:#3E3E40;stroke:#3F3F40;stroke-width:6.715;stroke-linecap:round;stroke-linejoin:round;stroke-miterlimit:10;}
	.st17{fill:#5D93A6;}
	.st18{fill:#72B6CC;}
	.st19{fill:#6FB5CA;}
	.st20{fill:#595959;}
</style>
<g id="Layer_1">
</g>
<g id="Layer_20">
</g>
<g id="Layer_19">
	<g>
		<path class="st10" d="M262.78,1704.79V372.84c0-83.64,67.81-151.45,151.45-151.45h1091.53c83.64,0,151.45,67.81,151.45,151.45
			v1331.95c0,83.64-67.81,151.45-151.45,151.45H414.24C330.59,1856.24,262.78,1788.44,262.78,1704.79z"/>
		<path class="st11" d="M388.7,1665.98V528.89c0-83.64,67.81-151.45,151.45-151.45h927.1c83.64,0,151.45,67.81,151.45,151.45v1137.1
			c0,83.64-67.81,151.45-151.45,151.45h-927.1C456.51,1817.44,388.7,1749.63,388.7,1665.98z"/>
		<path class="st12" d="M346.75,1641.31V436.33c0-83.64,67.81-151.45,151.45-151.45h923.59c83.64,0,151.45,67.81,151.45,151.45
			v1204.98c0,83.64-67.81,151.45-151.45,151.45H498.2C414.56,1792.76,346.75,1724.95,346.75,1641.31z"/>
		<path class="st2" d="M670,607.8L670,607.8c0-16.57,13.43-30,30-30h720c16.57,0,30,13.43,30,30l0,0c0,16.57-13.43,30-30,30H700
			C683.43,637.8,670,624.37,670,607.8z"/>
		<path class="st2" d="M665,723.8L665,723.8c0-16.57,13.43-30,30-30h480c16.57,0,30,13.43,30,30l0,0c0,16.57-13.43,30-30,30H695
			C678.43,753.8,665,740.37,665,723.8z"/>
		<path class="st2" d="M665,1286.45L665,1286.45c0-16.57,13.43-30,30-30h351.48c16.57,0,30,13.43,30,30v0c0,16.57-13.43,30-30,30
			H695C678.43,1316.45,665,1303.02,665,1286.45z"/>
		<path class="st2" d="M660,960L660,960c0-16.57,13.43-30,30-30h330c16.57,0,30,13.43,30,30l0,0c0,16.57-13.43,30-30,30H690
			C673.43,990,660,976.57,660,960z"/>
		<path class="st2" d="M660,1068.82L660,1068.82c0-16.57,13.43-30,30-30h112.5c16.57,0,30,13.43,30,30l0,0c0,16.57-13.43,30-30,30
			H690C673.43,1098.82,660,1085.39,660,1068.82z"/>
		<path class="st2" d="M660,1177.63L660,1177.63c0-16.57,13.43-30,30-30h112.5c16.57,0,30,13.43,30,30v0c0,16.57-13.43,30-30,30H690
			C673.43,1207.63,660,1194.2,660,1177.63z"/>
		<path class="st13" d="M1000,1559.2L1000,1559.2c0-8.28,6.72-15,15-15h360c8.28,0,15,6.72,15,15l0,0c0,8.28-6.72,15-15,15h-360
			C1006.72,1574.2,1000,1567.48,1000,1559.2z"/>
		<path class="st2" d="M660,839.8L660,839.8c0-16.57,13.43-30,30-30h230c16.57,0,30,13.43,30,30l0,0c0,16.57-13.43,30-30,30H690
			C673.43,869.8,660,856.37,660,839.8z"/>
		<path class="st2" d="M464.72,1574.99V530.27c0-29.07,23.57-52.64,52.64-52.64h0c29.07,0,52.64,23.57,52.64,52.64v1044.72
			c0,29.07-23.57,52.64-52.64,52.64h0C488.28,1627.63,464.72,1604.06,464.72,1574.99z"/>
		<path class="st14" d="M1082.48,1561.2c-7.01,24.11-7.46,62.27-3.47,87.06c0.64,3.98,15.7,56.72,18.67,54.01
			c0.85-0.78,6.79-50.71,7.05-51.84c24.68-106.54,66.79-245.74,149.63-349.62c0.87-1.09,2.56,0.04,1.91,1.28
			c-63.74,121.59-103.65,198.78-124.54,330.63c5-2.57,7.62-8.12,9.8-13.32c18.34-43.62,32.02-90.93,62.82-126.48
			c0.89-1.03,2.57-0.1,2.17,1.21c-7.69,25.35-18.17,56.38-18.44,82.37c-0.02,1.48,1.74,2.26,2.82,1.26
			c15.36-14.35,20.76-45.93,34.24-62.56c0.79-0.97,2.34-0.26,2.16,0.97c-3.16,21.42-5.32,42.99-6.47,64.61
			c-0.07,1.36,1.56,2.08,2.52,1.12c14.75-14.65,27.44-56.51,27.44-56.51c0.75,11.08,1.49,22.16,2.24,33.25
			c0.27,4.05,4.58,20.64,5.33,23.5c0.04,0.16,0.25,0.19,0.33,0.04c2.42-4.21,24.28-42.34,30.35-55.19
			c0.99,13.18,3.51,33.36,5.26,46.69c1.06,8.03,7.49,14.27,15.53,15.02c21.54,2.02,80.64,2,80.64,2"/>
		<circle class="st2" cx="746.25" cy="1501.38" r="81.52"/>
	</g>
</g>
<g id="Layer_18">
</g>
<g id="Layer_17">
</g>
<g id="Layer_16">
</g>
<g id="Layer_15">
</g>
<g id="Layer_14">
</g>
<g id="Layer_13">
</g>
<g id="Layer_12">
</g>
<g id="Layer_11">
</g>
<g id="Layer_10">
</g>
<g id="Layer_9">
</g>
<g id="Layer_8">
</g>
<g id="Layer_7">
</g>
<g id="Layer_6">
</g>
<g id="Layer_5">
</g>
<g id="Layer_4">
</g>
<g id="Layer_3">
</g>
<g id="Layer_2">
</g>
</svg>
