<?xml version="1.0" encoding="utf-8"?>
<!-- Generator: Adobe Adobe Illustrator 24.2.0, SVG Export Plug-In . SVG Version: 6.00 Build 0)  -->
<svg version="1.1" xmlns="http://www.w3.org/2000/svg" xmlns:xlink="http://www.w3.org/1999/xlink" x="0px" y="0px"
	 viewBox="0 0 1920 1920" style="enable-background:new 0 0 1920 1920;" xml:space="preserve">
<style type="text/css">
	.st0{fill:#F66550;}
	.st1{fill:#FFFFFF;}
	.st2{fill:#3E3E40;}
	.st3{fill:#B54A3A;}
	.st4{fill:#C4C4C4;}
	.st5{fill:#78B8D8;}
	.st6{fill:#5F93A6;}
	.st7{fill:#808080;}
	.st8{fill:#595858;}
	.st9{fill:#F46450;}
	.st10{fill:#74B7D0;}
	.st11{fill:#5E93A6;}
	.st12{fill:#FDFDFC;}
	.st13{fill:#3E3E40;stroke:#3E3E40;stroke-miterlimit:10;}
	.st14{fill:none;stroke:#3E3E40;stroke-width:22.6193;stroke-linecap:round;stroke-linejoin:round;stroke-miterlimit:10;}
	.st15{fill:none;stroke:#3E3E40;stroke-width:30.2039;stroke-miterlimit:10;}
	.st16{fill:#3E3E40;stroke:#3F3F40;stroke-width:6.715;stroke-linecap:round;stroke-linejoin:round;stroke-miterlimit:10;}
	.st17{fill:#5D93A6;}
	.st18{fill:#72B6CC;}
	.st19{fill:#6FB5CA;}
	.st20{fill:#595959;}
	.st21{fill:#F9F6F5;}
	.st22{font-family:'Montserrat-Regular';}
	.st23{font-size:350px;}
</style>
<g id="Layer_1">
</g>
<g id="Layer_20">
</g>
<g id="Layer_19">
</g>
<g id="Layer_18">
</g>
<g id="Layer_17">
</g>
<g id="Layer_16">
</g>
<g id="Layer_15">
</g>
<g id="Layer_14">
</g>
<g id="Layer_13">
</g>
<g id="Layer_12">
</g>
<g id="Layer_11">
</g>
<g id="Layer_10">
</g>
<g id="Layer_9">
</g>
<g id="Layer_8">
</g>
<g id="Layer_7">
</g>
<g id="Layer_6">
</g>
<g id="Layer_5">
	<g>
		<g>
			<g>
				<path class="st10" d="M582.31,142.78c-148.68,0-269.2,120.53-269.2,269.2v1096.45c0,148.68,120.53,269.2,269.2,269.2h856.03
					c148.68,0,269.2-120.53,269.2-269.2V705.66l-591.17-562.88H582.31z"/>
			</g>
		</g>
		<g>
			<g>
				<path class="st17" d="M1707.54,705.66l-512.64-488.11v467.16c0,52.86,42.85,95.72,95.72,95.72h416.93V705.66z"/>
			</g>
		</g>
		<path class="st2" d="M1707.09,705.24l-591.17-562.88v467.16c0,52.86,42.85,95.72,95.72,95.72H1707.09z"/>
		<path class="st17" d="M313.1,1535.2v-406.32c0-53.41,43.29-96.7,96.7-96.7h756.6c53.41,0,96.7,43.29,96.7,96.7v406.32
			c0,53.41-43.29,96.7-96.7,96.7h-756.6C356.4,1631.91,313.1,1588.61,313.1,1535.2z"/>
		<path class="st2" d="M108.75,1471.57v-406.32c0-53.41,43.29-96.7,96.7-96.7h839.46c53.41,0,96.7,43.29,96.7,96.7v406.32
			c0,53.41-43.29,96.7-96.7,96.7H205.45C152.04,1568.27,108.75,1524.98,108.75,1471.57z"/>
		<text transform="matrix(1 0 0 1 244.2133 1371.3147)" class="st21 st22 st23">PDF</text>
	</g>
</g>
<g id="Layer_4">
</g>
<g id="Layer_3">
</g>
<g id="Layer_2">
</g>
</svg>
